<svg width="170" height="170" viewBox="0 0 170 170" fill="none" xmlns="http://www.w3.org/2000/svg">
<g clip-path="url(#clip0_5643_484)">
<path d="M25.6752 39.9189L24.5427 37.7586L27.6718 34.0155L29.9959 34.7432L31.6333 32.7829L20.554 29.6493L19.0122 31.4913L24.0743 41.8246L25.6707 39.9144L25.6752 39.9189ZM21.6092 32.1189L25.7662 33.4197L23.6286 35.9757L21.6092 32.1189Z" fill="white"/>
<path d="M37.9555 27.1523L36.6183 25.6924L32.7342 29.2536L26.9718 22.9726L25.1798 24.6145L32.284 32.3599L37.9555 27.1523Z" fill="white"/>
<path d="M42.2902 23.9959L40.3891 16.7371L46.2198 21.4217L48.4074 19.989L45.5239 9.31912L43.5773 10.5926L45.6103 18.1607L39.5249 13.2487L37.642 14.4812L39.6159 22.0175L33.5851 17.1374L31.4747 18.52L40.1207 25.4195L42.2902 23.9959Z" fill="white"/>
<path d="M52.9611 15.2772L57.4547 13.3806L59.1875 15.0952L61.5389 14.1038L53.1294 6.24458L50.9145 7.17695L50.678 18.6792L52.9748 17.7104L52.9566 15.2726L52.9611 15.2772ZM56.0357 11.9752L52.9657 13.2714L52.9384 8.91888L56.0357 11.9798V11.9752Z" fill="white"/>
<path d="M64.2272 13.5034L66.5741 12.8667L65.5962 9.27363L67.7566 1.65552L65.4507 2.27861L63.968 7.52261L60.0339 3.75675L57.546 4.43442L63.2448 9.88308L64.2272 13.5034Z" fill="white"/>
<path d="M76.0439 8.16844C76.1349 8.80972 75.6209 9.3646 74.1928 9.56471C72.9421 9.74209 71.5731 9.4783 70.6043 8.96436L70.0404 10.8928C71.0637 11.4749 72.7965 11.7342 74.4475 11.4977C77.422 11.0792 78.6545 9.38734 78.4089 7.64995C77.8723 3.82952 72.0052 6.00353 71.7368 4.08877C71.6459 3.43384 72.1189 2.81984 73.547 2.61972C74.4702 2.48782 75.5027 2.61972 76.5442 3.02905L77.0308 1.0961C75.9802 0.623091 74.5976 0.500291 73.2877 0.682217C70.3315 1.10064 69.108 2.77436 69.3582 4.53903C69.9039 8.40494 75.7665 6.21274 76.0394 8.15934L76.0439 8.16844Z" fill="white"/>
<path d="M86.8874 6.76762L91.7449 6.94954L91.8176 5.00294L86.9602 4.81647L87.0648 2.04211L92.5681 2.25132L92.6408 0.300177L84.7089 0L84.3087 10.4971L86.7419 10.588L86.8874 6.76762Z" fill="white"/>
<path d="M95.0283 0.651212L93.6496 11.0665L96.0618 11.3858L97.4405 0.970482L95.0283 0.651212Z" fill="white"/>
<path d="M100.423 12.1662L102.793 12.7075L104.69 4.39804L107.969 5.14393L108.41 3.21098L99.482 1.17342L99.0408 3.10637L102.32 3.85681L100.423 12.1662Z" fill="white"/>
<path d="M131.966 24.3416L135.723 27.4525L135.004 29.7812L136.969 31.4094L140.048 20.321L138.197 18.7883L127.891 23.8959L129.81 25.4832L131.962 24.3416H131.966ZM137.592 21.3808L136.31 25.5423L133.745 23.4183L137.592 21.3808Z" fill="white"/>
<path d="M142.646 37.7176L144.097 36.3714L140.522 32.5055L146.78 26.7157L145.129 24.9283L137.415 32.0643L142.646 37.7176Z" fill="white"/>
<path d="M145.821 42.0384L153.07 40.1054L148.413 45.9543L149.855 48.1329L160.511 45.2084L159.229 43.2664L151.67 45.3312L156.554 39.2231L155.313 37.3447L147.786 39.3504L152.638 33.3014L151.247 31.1956L144.388 39.8734L145.821 42.0384Z" fill="white"/>
<path d="M155.795 61.236L163.613 52.7901L162.672 50.5798L151.17 50.3978L152.148 52.6901L154.585 52.6628L156.5 57.1473L154.795 58.8892L155.795 61.236ZM160.944 52.6082L157.896 55.7191L156.587 52.6537L160.939 52.6082H160.944Z" fill="white"/>
<path d="M156.405 63.9103L157.055 66.2526L160.639 65.2611L168.271 67.3805L167.63 65.0792L162.386 63.6238L166.133 59.6715L165.442 57.1836L160.021 62.9097L156.405 63.9103Z" fill="white"/>
<path d="M165.383 69.0224C161.522 69.5818 163.737 75.4353 161.79 75.7173C161.153 75.8082 160.594 75.2988 160.385 73.8753C160.203 72.6291 160.457 71.2555 160.971 70.2868L159.038 69.7319C158.461 70.7553 158.211 72.4926 158.452 74.1391C158.884 77.109 160.576 78.3324 162.313 78.0823C166.129 77.5274 163.928 71.674 165.847 71.3965C166.502 71.301 167.116 71.774 167.321 73.1976C167.452 74.1163 167.334 75.1533 166.92 76.1994L168.853 76.6769C169.322 75.6217 169.44 74.2391 169.249 72.9338C168.821 69.9775 167.143 68.7677 165.374 69.0224H165.383Z" fill="white"/>
<path d="M159.502 83.9858L159.421 86.419L163.245 86.5464L163.082 91.4038L165.033 91.4674L165.192 86.61L167.966 86.701L167.785 92.2042L169.736 92.2725L169.999 84.336L159.502 83.9858Z" fill="white"/>
<path d="M158.981 93.3218L158.673 95.7355L169.094 97.0667L169.403 94.6531L158.981 93.3218Z" fill="white"/>
<path d="M166.224 101.96L157.901 100.104L157.374 102.474L165.692 104.334L164.96 107.613L166.893 108.045L168.89 99.1083L166.957 98.6762L166.224 101.96Z" fill="white"/>
<path d="M144.72 129.549L145.87 131.696L142.778 135.466L140.449 134.757L138.83 136.73L149.932 139.764L151.456 137.908L146.303 127.625L144.72 129.553V129.549ZM148.854 137.308L144.688 136.044L146.803 133.469L148.854 137.308Z" fill="white"/>
<path d="M132.544 142.434L133.895 143.88L137.747 140.287L143.564 146.518L145.343 144.858L138.17 137.176L132.544 142.434Z" fill="white"/>
<path d="M128.237 145.627L130.206 152.867L124.334 148.237L122.16 149.688L125.139 160.331L127.072 159.039L124.971 151.489L131.102 156.347L132.976 155.096L130.934 147.582L137.005 152.403L139.102 151.002L130.397 144.185L128.237 145.627Z" fill="white"/>
<path d="M117.639 154.445L113.163 156.378L111.417 154.682L109.075 155.696L117.552 163.473L119.758 162.523L119.89 151.021L117.602 152.008L117.643 154.441L117.639 154.445ZM117.725 160.804L114.601 157.775L117.657 156.451L117.725 160.804Z" fill="white"/>
<path d="M106.404 156.31L104.062 156.97L105.072 160.554L102.984 168.194L105.281 167.544L106.714 162.291L110.684 166.025L113.172 165.32L107.423 159.926L106.404 156.31Z" fill="white"/>
<path d="M94.6288 161.754C94.5333 161.118 95.0426 160.554 96.4662 160.34C97.7124 160.153 99.0859 160.403 100.059 160.908L100.605 158.975C99.5771 158.402 97.8398 158.161 96.1933 158.407C93.2234 158.853 92.009 160.554 92.2683 162.291C92.8414 166.107 98.6857 163.878 98.9722 165.793C99.0723 166.448 98.5993 167.062 97.1757 167.276C96.257 167.412 95.22 167.294 94.174 166.894L93.7055 168.831C94.7607 169.295 96.1433 169.404 97.4532 169.209C100.409 168.767 101.61 167.08 101.346 165.315C100.769 161.454 94.9244 163.701 94.6333 161.754H94.6288Z" fill="white"/>
<path d="M83.7989 163.251L78.937 163.11L78.8778 165.061L83.7398 165.202L83.6579 167.976L78.1547 167.817L78.0956 169.768L86.032 170L86.3368 159.498L83.9081 159.426L83.7989 163.251Z" fill="white"/>
<path d="M74.5874 158.702L73.2996 169.129L75.71 169.427L76.9978 159L74.5874 158.702Z" fill="white"/>
<path d="M70.2219 157.97L67.8432 157.452L66.024 165.779L62.7402 165.061L62.3173 166.998L71.2589 168.954L71.6819 167.016L68.3981 166.298L70.2219 157.97Z" fill="white"/>
<path d="M38.5652 146.077L34.7812 143.002L35.477 140.669L33.4986 139.059L30.5196 150.175L32.3843 151.689L42.6449 146.491L40.7119 144.917L38.5698 146.077H38.5652ZM32.9665 149.088L34.2127 144.917L36.796 147.018L32.9665 149.088Z" fill="white"/>
<path d="M27.7767 132.805L26.3349 134.165L29.9462 137.999L23.7425 143.844L25.4117 145.613L33.0571 138.409L27.7767 132.805Z" fill="white"/>
<path d="M24.5604 128.512L17.3289 130.513L21.9362 124.619L20.4762 122.454L9.84268 125.478L11.1434 127.407L18.6842 125.274L13.8541 131.427L15.114 133.292L22.6184 131.218L17.8246 137.313L19.2346 139.4L26.0113 130.668L24.5604 128.512Z" fill="white"/>
<path d="M18.1337 117.91L15.7005 117.96L13.7448 113.494L15.4322 111.738L14.4088 109.401L6.66791 117.915L7.63211 120.116L19.1343 120.193L18.1337 117.91ZM9.34221 118.074L12.3576 114.936L13.6948 117.988L9.34221 118.074Z" fill="white"/>
<path d="M13.7763 106.722L13.1077 104.384L9.52833 105.412L1.88292 103.356L2.53785 105.653L7.80004 107.063L4.08876 111.047L4.79827 113.53L10.1696 107.759L13.7763 106.722Z" fill="white"/>
<path d="M4.75279 101.705C8.6096 101.109 6.34009 95.2788 8.28669 94.9786C8.92343 94.8785 9.48739 95.3834 9.7057 96.807C9.89673 98.0531 9.65568 99.4267 9.15083 100.4L11.0838 100.937C11.6523 99.9088 11.8888 98.1714 11.6341 96.525C11.1748 93.5596 9.4692 92.3498 7.73636 92.6181C3.92503 93.2048 6.17636 99.0401 4.26614 99.3357C3.61576 99.4358 2.99721 98.9719 2.77435 97.5483C2.63336 96.6296 2.74707 95.5926 3.1473 94.5465L1.2098 94.0872C0.750436 95.1469 0.645829 96.5295 0.845947 97.8348C1.30076 100.787 2.98812 101.983 4.75279 101.71V101.705Z" fill="white"/>
<path d="M10.5608 84.245L6.73578 84.1495L6.85403 79.2875L4.90288 79.2421L4.78463 84.104L2.01027 84.0358L2.14672 78.528L0.19557 78.478L0 86.4145L10.5016 86.6737L10.5608 84.245Z" fill="white"/>
<path d="M0.796225 73.684L0.509384 76.1003L10.9423 77.3388L11.2292 74.9225L0.796225 73.684Z" fill="white"/>
<path d="M3.62031 68.7723L11.957 70.5551L12.4664 68.1765L4.1297 66.3936L4.83011 63.1053L2.89261 62.6914L0.982391 71.6467L2.91989 72.0606L3.62031 68.7723Z" fill="white"/>
<path d="M90.59 73.8889V73.898C71.5732 56.8607 52.0288 54.1546 43.8691 40.2646C42.9821 38.7546 36.4507 68.7768 54.2484 90.7079C69.2945 109.246 94.1468 119.952 101.72 119.952C102.461 119.952 106.914 88.5203 90.59 73.8889Z" fill="white"/>
<path d="M106.173 41.0059V40.9968C86.1462 47.578 79.4692 60.7403 79.4692 60.7403C79.4692 60.7403 87.0877 65.9161 91.3404 69.5091C96.5347 73.898 100.237 79.7424 100.237 80.4792C100.237 80.4792 107.046 75.408 112.85 56.3559C115.074 49.047 121.005 43.1936 126.199 38.8137C121.928 38.5681 114.128 38.3953 106.173 41.0059Z" fill="white"/>
<path d="M82.4302 117.032C82.4302 117.032 77.2359 114.84 73.5336 112.644C70.4634 110.824 65.7604 107.181 65.3783 106.795V106.804C65.3783 106.804 62.6357 111.943 61.6668 121.426C60.9255 128.735 57.9645 133.128 54.9898 136.776C57.2231 136.908 64.5915 133.77 68.3393 131.655C78.7187 125.806 82.4302 117.415 82.4302 117.032Z" fill="white"/>
<path d="M50.8188 159.426C52.0748 159.426 53.0929 158.407 53.0929 157.152C53.0929 155.896 52.0748 154.877 50.8188 154.877C49.5629 154.877 48.5448 155.896 48.5448 157.152C48.5448 158.407 49.5629 159.426 50.8188 159.426Z" fill="white"/>
<path d="M157.342 121.18C158.598 121.18 159.616 120.162 159.616 118.906C159.616 117.65 158.598 116.632 157.342 116.632C156.086 116.632 155.068 117.65 155.068 118.906C155.068 120.162 156.086 121.18 157.342 121.18Z" fill="white"/>
<path d="M119.672 15.4545C120.928 15.4545 121.946 14.4364 121.946 13.1805C121.946 11.9246 120.928 10.9064 119.672 10.9064C118.416 10.9064 117.398 11.9246 117.398 13.1805C117.398 14.4364 118.416 15.4545 119.672 15.4545Z" fill="white"/>
<path d="M12.8445 53.1949C14.1004 53.1949 15.1186 52.1768 15.1186 50.9209C15.1186 49.6649 14.1004 48.6468 12.8445 48.6468C11.5886 48.6468 10.5704 49.6649 10.5704 50.9209C10.5704 52.1768 11.5886 53.1949 12.8445 53.1949Z" fill="white"/>
</g>
<defs>
<clipPath id="clip0_5643_484">
<rect width="170" height="170" fill="white"/>
</clipPath>
</defs>
</svg>
