<svg width="202" height="36" viewBox="0 0 202 36" fill="none" xmlns="http://www.w3.org/2000/svg">
<path fill-rule="evenodd" clip-rule="evenodd" d="M56.8562 14.1393V28.2786H59.7079H62.5596V14.1393V0H59.7079H56.8562V14.1393ZM21.5919 0.812846C18.5976 1.49252 15.3093 3.37338 13.476 5.45514C12.5884 6.46265 11.8625 7.39946 11.8625 7.53658C11.8625 7.6737 12.1835 7.9384 12.5755 8.12419C13.5935 8.60723 16.5713 11.4512 17.5967 12.9204L18.4674 14.1676L19.4173 12.7346C19.9402 11.9464 20.9462 9.85839 21.6534 8.09492C23.0517 4.60843 23.7257 3.44638 25.443 1.5619L26.5666 0.328821L24.9972 0.362361C24.1341 0.381104 22.6018 0.583658 21.5919 0.812846ZM182.712 0.723407C182.173 1.28207 182.24 2.81767 182.829 3.42928C183.438 4.06061 184.547 4.09613 185.321 3.50918C185.983 3.00674 186.081 1.54776 185.501 0.823039C185.028 0.232147 183.247 0.168357 182.712 0.723407ZM0.658464 2.40631C-0.0658707 8.66378 1.70124 14.3133 5.78996 18.8109C8.8264 22.1517 12.0301 24.2861 16.5641 25.9894C18.2573 26.6253 18.617 26.6707 18.8565 26.2781C19.0127 26.0219 19.1426 24.291 19.1455 22.4315C19.1528 17.2661 17.9021 14.0736 14.6692 11.005C13.1917 9.60257 11.9348 8.74467 6.95853 5.74319C5.21994 4.69458 3.13565 3.13137 2.3264 2.26952L0.85555 0.702363L0.658464 2.40631ZM37.5561 3.37042C37.2355 4.13887 34.7453 9.96657 32.0226 16.3204C29.2995 22.6742 27.0717 27.9643 27.0717 28.0757C27.0717 28.1872 28.393 28.2786 30.008 28.2786H32.9443L34.0267 25.4767L35.1091 22.6749L41.1037 22.764L47.0983 22.8531L48.1132 25.4836L49.1284 28.1142L52.2387 28.2089C54.674 28.2829 55.3144 28.2115 55.1899 27.8801C55.1024 27.647 52.5733 21.7229 49.5695 14.7148L44.1084 1.97293H41.124H38.1392L37.5561 3.37042ZM161.102 15.1258V28.2786H162.528H163.954V22.6887V17.0987H170.449H176.945V15.9478V14.797H170.449H163.954V9.53582V4.27468H171.242H178.529V3.1238V1.97293H169.816H161.102V15.1258ZM192.154 6.2476V8.54935H190.411C188.686 8.54935 188.669 8.55922 188.669 9.53582C188.669 10.5124 188.686 10.5223 190.411 10.5223H192.154L192.156 17.1809C192.157 20.8433 192.304 24.3851 192.482 25.0516C193.152 27.5532 196.039 28.9793 199.11 28.3247C201.312 27.8554 201.825 27.3698 201.323 26.2271C200.967 25.4156 200.914 25.4014 199.891 25.845C198.59 26.4093 197.517 26.43 196.423 25.9128C194.863 25.1755 194.689 24.2913 194.689 17.1151V10.5223H197.541H200.392V9.53582V8.54935H197.541H194.689V6.2476V3.94586H193.422H192.154V6.2476ZM104.414 7.91506C102.886 8.19587 98.9982 9.75251 98.9982 10.0833C98.9982 10.1543 99.425 11.0895 99.9466 12.1618L100.895 14.1114L102.561 13.3064C103.849 12.684 104.754 12.5008 106.555 12.4985C108.783 12.4952 108.931 12.5439 109.961 13.6132C110.634 14.3113 111.039 15.0521 111.039 15.5861V16.4411H107.886C102.628 16.4411 100.219 17.3161 98.8683 19.7171C97.9694 21.3139 98.009 23.8224 98.958 25.4159C100.972 28.7978 107.363 29.7337 110.391 27.0899L111.356 26.2472V27.2629V28.2786H114.075H116.795L116.689 20.9624C116.59 14.063 116.541 13.5566 115.839 12.0753C114.566 9.39377 112.137 8.01272 108.221 7.74374C107.069 7.66482 105.357 7.7421 104.414 7.91506ZM145.964 7.9121C143.722 8.37047 141.508 9.8209 140.603 11.4242C139.929 12.6172 139.82 13.1499 139.941 14.6605C140.207 17.9898 141.895 19.2992 147.275 20.3521C150.853 21.0518 151.596 21.3957 151.596 22.349C151.596 24.3568 147.147 24.8405 143.366 23.2434C142.237 22.7666 141.232 22.4838 141.132 22.6147C141.031 22.7459 140.604 23.6452 140.183 24.6133C139.425 26.3544 139.424 26.3787 140.041 26.8473C141.422 27.8959 144.089 28.443 147.794 28.4381C150.91 28.4338 151.667 28.3243 153.019 27.6821C155.84 26.3412 156.983 24.6817 156.983 21.9258C156.983 18.8793 154.845 17.1365 150.02 16.2487C145.768 15.4668 144.593 14.696 145.502 13.2844C146.323 12.0082 149.916 11.7787 152.77 12.8198C153.756 13.1792 154.586 13.4383 154.616 13.3952C154.711 13.2604 156.349 9.46019 156.349 9.37634C156.349 9.12249 153.354 8.1962 151.596 7.90684C149.236 7.51817 147.883 7.51948 145.964 7.9121ZM45.1309 18.003C45.1319 18.0483 43.3502 18.0852 41.1718 18.0852C38.9934 18.0852 37.2111 17.9566 37.2111 17.7994C37.2111 17.6422 37.9389 15.6815 38.8286 13.4425C39.7181 11.2033 40.584 9.00148 40.7529 8.54935C41.0276 7.81312 41.2719 8.25868 43.0945 12.824C44.2136 15.6272 45.13 17.9576 45.1309 18.003ZM64.4548 8.12517C64.4513 8.26788 65.9839 12.8641 67.861 18.3384L71.2732 28.2921L74.0726 28.203L76.8721 28.1142L78.2758 24.1684C79.0476 21.9981 80.0546 19.2005 80.5134 17.9517L81.3474 15.6812L83.0375 20.5822C83.9671 23.2779 84.9564 26.1124 85.2352 26.8811L85.7425 28.2786H88.489L91.2352 28.2783L94.7552 18.1674L98.2751 8.05612L95.8917 7.95912C94.5055 7.90256 93.4244 8.00285 93.3081 8.19817C93.1978 8.3833 92.1183 11.4233 90.9088 14.9538C89.6994 18.4847 88.6364 21.3731 88.5467 21.3731C88.457 21.3727 87.368 18.3762 86.1265 14.7144L83.8699 8.05612L81.4915 7.96076L79.1132 7.8654L77.694 11.9066C76.9133 14.1294 75.8623 17.1681 75.3581 18.6596C74.8543 20.1512 74.3546 21.3721 74.2479 21.3724C74.1411 21.3731 73.0603 18.3772 71.8461 14.7148L69.6382 8.05612L67.0495 7.96076C65.6256 7.90815 64.4579 7.98214 64.4548 8.12517ZM117.797 8.13833C117.875 8.2738 119.811 12.9401 122.099 18.5074C126.576 29.4019 126.517 29.1378 124.781 30.5547C123.804 31.3524 122.03 31.4383 120.861 30.7448C120.426 30.4863 119.964 30.2696 119.836 30.2631C119.708 30.2568 119.178 31.1252 118.659 32.1932C117.94 33.6706 117.806 34.2109 118.099 34.4516C119.645 35.7199 122.6 36.3203 124.88 35.829C126.783 35.419 128.196 34.5095 129.458 32.8821C130.212 31.9082 139.873 8.98767 139.873 8.17055C139.873 8.01699 138.697 7.89204 137.259 7.8927L134.645 7.89368L131.971 14.6335C130.501 18.3403 129.202 21.3734 129.083 21.3734C128.966 21.3734 127.673 18.3403 126.212 14.6332L123.555 7.89335L120.605 7.89237C118.983 7.89204 117.719 8.00285 117.797 8.13833ZM182.648 18.2496V28.2786H184.074H185.5V18.2496V8.22053H184.074H182.648V18.2496ZM111.039 20.9712C111.039 22.5085 110.33 23.6038 108.948 24.2032C105.836 25.5524 102.982 23.8349 103.957 21.1994C104.295 20.2853 105.976 19.7559 108.583 19.7421L111.039 19.7293V20.9712ZM7.39896 23.2552C7.21487 23.7577 6.847 25.2781 6.58179 26.6345C6.31658 27.9909 5.76683 29.7294 5.35967 30.4982C4.50954 32.1031 4.71582 32.2192 6.86569 31.3462C9.02381 30.4696 10.8986 28.981 11.892 27.3553C12.3987 26.5263 12.8131 25.747 12.8131 25.6237C12.8131 25.5001 12.3622 25.2051 11.8115 24.9684C11.2605 24.7316 10.1176 24.0437 9.2719 23.44L7.7342 22.3424L7.39896 23.2552Z" fill="black"/>
</svg>
